<?xml version="1.0" encoding="iso-8859-1"?>
<!-- Uploaded to: SVG Repo, www.svgrepo.com, Generator: SVG Repo Mixer Tools -->
<svg fill="#000000" height="800px" width="800px" version="1.1" id="Layer_1" xmlns="http://www.w3.org/2000/svg" xmlns:xlink="http://www.w3.org/1999/xlink" 
	 viewBox="0 0 512 512" xml:space="preserve">
<g>
	<g>
		<path d="M494.326,0h-102.44c-4.992,0-9.039,4.047-9.039,9.039v285.726c0,53.329-43.387,96.717-96.717,96.717
			c-53.331,0-96.717-43.387-96.717-96.717V9.039c0-4.992-4.047-9.039-9.039-9.039H77.933H17.674c-4.992,0-9.039,4.047-9.039,9.039
			v285.726C8.635,414.549,106.086,512,225.87,512h60.259c49.111,0,95.481-16.057,134.092-46.432
			c3.923-3.086,4.601-8.769,1.515-12.693c-3.088-3.924-8.77-4.601-12.693-1.515c-35.394,27.845-77.897,42.562-122.915,42.562
			c-109.816,0-199.158-89.341-199.158-199.158V121.47c0-4.992-4.047-9.039-9.039-9.039s-9.039,4.047-9.039,9.039v173.294
			c0,31.077,6.739,62.177,19.728,90.413c12.366,26.884,30.246,51.162,52.235,70.967c13.952,12.566,29.56,23.356,46.257,31.947
			c0.275,0.141,0.552,0.277,0.827,0.417c1.145,0.582,2.295,1.155,3.452,1.717c0.41,0.2,0.82,0.398,1.231,0.594
			c0.342,0.164,0.682,0.334,1.026,0.495C99.095,475.873,26.71,393.613,26.71,294.762V18.078h42.181v67.237
			c0,4.992,4.047,9.039,9.039,9.039c4.992,0,9.039-4.047,9.039-9.039V18.078h84.363v276.687
			c0,63.297,51.496,114.795,114.795,114.795c63.297,0,114.795-51.496,114.795-114.795V18.078h84.363v276.687
			c0.002,49.086-18.096,96.28-50.96,132.889c-3.335,3.716-3.026,9.431,0.688,12.764c1.727,1.55,3.884,2.313,6.036,2.313
			c2.477,0,4.945-1.012,6.729-3.001c35.847-39.933,55.588-91.417,55.588-144.967V9.039C503.365,4.047,499.318,0,494.326,0z"/>
	</g>
</g>
</svg>